<?xml version="1.0" standalone="no"?>
<!DOCTYPE svg PUBLIC "-//W3C//DTD SVG 20010904//EN"
 "http://www.w3.org/TR/2001/REC-SVG-20010904/DTD/svg10.dtd">
<svg version="1.0" xmlns="http://www.w3.org/2000/svg"
 width="700.000000pt" height="700.000000pt" viewBox="0 0 700.000000 700.000000"
 preserveAspectRatio="xMidYMid meet">
<metadata>
Created by potrace 1.14, written by Peter Selinger 2001-2017
</metadata>
<g transform="translate(0.000000,700.000000) scale(0.100000,-0.100000)"
fill="#000000" stroke="none">
<path d="M942 6388 c-316 -34 -552 -192 -552 -372 0 -145 87 -215 365 -295
263 -76 410 -194 429 -347 14 -110 18 -134 42 -251 56 -280 145 -509 233 -600
150 -157 316 76 426 598 9 41 18 90 21 109 27 180 35 211 59 250 71 113 183
180 415 249 175 52 223 74 275 125 65 66 85 179 44 262 -98 204 -542 337 -846
254 -163 -44 -260 -133 -288 -260 l-8 -35 -14 49 c-18 62 -51 113 -99 156 -41
35 -140 84 -189 93 -17 3 -42 8 -57 12 -47 9 -181 11 -256 3z"/>
<path d="M6871 5750 c-24 -11 -126 -78 -225 -149 -294 -210 -486 -315 -661
-364 -78 -21 -313 -31 -400 -17 -143 24 -211 40 -443 106 -225 65 -272 72
-297 43 -16 -17 -17 -24 -6 -62 27 -89 203 -381 303 -501 91 -109 217 -224
338 -308 148 -102 384 -191 549 -207 14 -1 12 -62 -15 -381 -22 -268 -90 -457
-230 -640 -131 -172 -342 -332 -469 -355 -218 -39 -446 65 -1125 515 -369 245
-643 398 -907 509 -202 84 -411 155 -595 202 -132 33 -135 34 -218 49 -30 6
-66 12 -80 15 -45 9 -186 30 -260 39 -182 22 -311 29 -535 30 -178 0 -331 -7
-390 -19 -11 -3 -36 -7 -55 -9 -123 -17 -293 -72 -414 -132 -343 -172 -557
-484 -656 -954 -10 -53 -22 -113 -25 -135 -3 -22 -7 -53 -10 -70 -3 -16 -7
-55 -11 -85 -3 -30 -7 -66 -9 -79 -27 -166 -27 -1090 0 -1301 2 -19 6 -55 9
-80 3 -25 9 -76 15 -115 112 -761 450 -1148 1106 -1267 l130 -23 1445 0 c795
0 1483 4 1530 8 91 8 110 11 240 33 133 24 325 81 473 140 692 278 1182 811
1461 1589 81 224 155 541 181 775 3 30 8 62 10 70 2 8 7 44 10 80 4 36 8 79
10 95 26 225 26 720 1 960 -9 84 -19 151 -37 262 -22 136 -20 127 -49 242 -11
46 -19 85 -18 86 2 2 22 12 45 24 56 28 156 123 203 190 32 48 102 176 99 183
0 2 2 10 5 18 25 72 48 151 52 180 3 19 8 38 9 41 2 3 7 28 10 55 4 27 8 56
10 64 11 41 19 218 20 411 0 200 -2 219 -19 238 -24 26 -49 26 -105 1z"/>
</g>
</svg>
